<svg xmlns="http://www.w3.org/2000/svg" version="1.1" id="Layer_1" x="0" y="0" width="637" height="614" viewBox="180.5 92.5 637 614" xml:space="preserve"><g id="g97"><g id="XMLID_1_"><g id="g16"><path d="M812.03 462.48v239.46H187.97V507.81h31.63v29.2h1.729V545l50.34-.671V390.33l81.221-.561v46.8h31.28v32.5h25.14V277.8h25.04V134.52L503 265l1.33 72.67 34.11.56v22.681h37V531.21h13.609V432.5h15.25v-30.85h21.409V285.6l41.511-41.51v-5.72l10.66-8.23 9.88 7.8v6.59l40.38 40.29v116.83h29.99v22.619h31.279v38.211h22.622zM691.48 277.8v-8.58h-9.88v8.58h9.88zm-17.679 0v-8.58h-9.439v8.58h9.439zM532.72 639.449v-25.13h-17.34v25.13h17.34zm-98.37 1.991v-25.48h-17.24v25.479h17.24zm-100.35 0v-25.48h-17.68v25.479H334zm-87.19 0v-25.48h-17.33v25.479h17.33z" id="path10"/><path fill="#6D6D6C" id="polygon12" d="M538.44 113.66v224.57l-34.11-.56L503 265l-68.65-130.48v-20.86h11.531v-15.6h77.389v15.6z"/><path fill="#6D6D6C" id="polygon14" d="M352.89 374.52v15.25l-81.22.56v153.999l-50.34.671v-7.99h11.88V301.29h48.53z"/></g><g id="g94" fill="none" stroke="#FFF"><path stroke-width="3" stroke-linecap="round" stroke-linejoin="round" id="polyline18" d="M635.15 650.89v-71.5h13.521"/><path stroke-width="3" stroke-linecap="round" stroke-linejoin="round" id="polyline20" d="M697.2 650.89v-71.5h13.61"/><path stroke-width="3" stroke-linecap="round" stroke-linejoin="round" id="polyline22" d="M756.91 650.89v-71.5h13.52"/><path stroke-width="3" stroke-linecap="round" stroke-linejoin="round" id="line24" d="M532.72 158.12h-77.39"/><path stroke-width="3" stroke-linecap="round" stroke-linejoin="round" id="line26" d="M440.94 126.49h91.78"/><path stroke-width="3" stroke-linecap="round" stroke-linejoin="round" id="line28" d="M532.72 141.66h-83.98"/><path stroke-width="3" stroke-linecap="round" stroke-linejoin="round" id="line30" d="M533.93 173.72h-69.509"/><path stroke-width="3" stroke-linecap="round" stroke-linejoin="round" id="line32" d="M533.93 188.97h-62.92"/><path stroke-width="3" stroke-linecap="round" stroke-linejoin="round" id="line34" d="M533.93 203.79h-53.04"/><path stroke-width="3" stroke-linecap="round" stroke-linejoin="round" id="line36" d="M532.72 218.96h-44.46"/><path stroke-width="3" stroke-linecap="round" stroke-linejoin="round" id="line38" d="M532.72 235.43h-37.44"/><path stroke-width="3" stroke-linecap="round" stroke-linejoin="round" id="line40" d="M533.93 249.81h-30.85"/><path stroke-width="3" stroke-linecap="round" stroke-linejoin="round" id="line42" d="M533.93 264.29h-22.19"/><path stroke-width="3" stroke-linecap="round" stroke-linejoin="round" id="line44" d="M533.93 279.88h-23.49"/><path stroke-width="3" stroke-linecap="round" stroke-linejoin="round" id="line46" d="M533.93 296.35h-23.49"/><path stroke-width="3" stroke-linecap="round" stroke-linejoin="round" id="line48" d="M533.93 311.95h-23.49"/><path stroke-width="3" stroke-linecap="round" stroke-linejoin="round" id="line50" d="M237.28 309.87h25.13"/><path stroke-width="3" stroke-linecap="round" stroke-linejoin="round" id="line52" d="M237.28 322.26h25.13"/><path stroke-width="3" stroke-linecap="round" stroke-linejoin="round" id="line54" d="M237.28 335h25.13"/><path stroke-width="3" stroke-linecap="round" stroke-linejoin="round" id="line56" d="M237.28 347.31h25.13"/><path stroke-width="3" stroke-linecap="round" stroke-linejoin="round" id="line58" d="M237.28 360.13h25.13"/><path stroke-width="3" stroke-linecap="round" stroke-linejoin="round" id="line60" d="M237.28 372.87h25.13"/><path stroke-width="3" stroke-linecap="round" stroke-linejoin="round" id="line62" d="M237.28 385.18h25.13"/><path stroke-width="3" stroke-linecap="round" stroke-linejoin="round" id="line64" d="M237.28 397.92h25.13"/><path stroke-width="3" stroke-linecap="round" stroke-linejoin="round" id="line66" d="M237.28 410.31h25.13"/><path stroke-width="3" stroke-linecap="round" stroke-linejoin="round" id="line68" d="M237.28 423.05h25.13"/><path stroke-width="3" stroke-linecap="round" stroke-linejoin="round" id="line70" d="M237.28 435.36h25.13"/><path stroke-width="3" stroke-linecap="round" stroke-linejoin="round" id="line72" d="M237.28 448.1h25.13"/><path stroke-width="3" stroke-linecap="round" stroke-linejoin="round" id="line74" d="M237.28 460.49h25.13"/><path stroke-width="3" stroke-linecap="round" stroke-linejoin="round" id="line76" d="M237.28 473.23h25.13"/><path stroke-width="3" stroke-linecap="round" stroke-linejoin="round" id="line78" d="M237.28 485.539h25.13"/><path stroke-width="3" stroke-linecap="round" stroke-linejoin="round" id="line80" d="M237.28 498.28h25.13"/><path stroke-width="3" stroke-linecap="round" stroke-linejoin="round" id="line82" d="M237.28 510.67h25.13"/><path stroke-width="3" stroke-linecap="round" stroke-linejoin="round" id="line84" d="M237.28 523.409h25.13"/><path stroke-width="3" stroke-linecap="round" stroke-linejoin="round" id="line86" d="M237.28 535.71h25.13"/><path stroke-width="3" id="polyline88" d="M352.89 389.77l-81.22.56v153.999l-50.34.671v-7.99"/><path id="line90" d="M367 389.67l-14.11.1"/><path stroke-width="3" id="polyline92" d="M434.35 134.52L503 265l1.33 72.67 34.11.56"/></g></g></g></svg>