<svg viewBox="0 0 637 614" xmlns="http://www.w3.org/2000/svg" fill-rule="evenodd" clip-rule="evenodd" stroke-linecap="round" stroke-linejoin="round"><g id="g97"><g id="XMLID_1_" fill-rule="nonzero"><g id="g16"><path id="path10" d="M631.53 369.98v239.46H7.47V415.31H39.1v29.2h1.729v7.99l50.34-.671V297.83l81.221-.561v46.8h31.28v32.5h25.14V185.3h25.04V42.02L322.5 172.5l1.33 72.67 34.11.56v22.681h37V438.71h13.609V340h15.25v-30.85h21.409V193.1l41.511-41.51v-5.72l10.66-8.23 9.88 7.8v6.59l40.38 40.29v116.83h29.99v22.619h31.279v38.211h22.622zM510.98 185.3v-8.58h-9.88v8.58h9.88zm-17.679 0v-8.58h-9.439v8.58h9.439zM352.22 546.949v-25.13h-17.34v25.13h17.34zm-98.37 1.991v-25.48h-17.24v25.479h17.24v.001zm-100.35 0v-25.48h-17.68v25.479h17.68v.001zm-87.19 0v-25.48H48.98v25.479h17.33v.001z"/><path id="polygon12" d="M357.94 21.16v224.57l-34.11-.56-1.33-72.67-68.65-130.48V21.16h11.531V5.56h77.389v15.6h15.17z" fill="#6d6d6c"/><path id="polygon14" d="M172.39 282.02v15.25l-81.22.56v153.999l-50.34.671v-7.99h11.88V208.79h48.53l71.15 73.23z" fill="#6d6d6c"/></g><g id="g94" fill="none" stroke="#fff"><path id="polyline18" d="M454.65 558.39v-71.5h13.521" stroke-width="3"/><path id="polyline20" d="M516.7 558.39v-71.5h13.61" stroke-width="3"/><path id="polyline22" d="M576.41 558.39v-71.5h13.52" stroke-width="3"/><path id="line24" d="M352.22 65.62h-77.39" stroke-width="3"/><path id="line26" d="M260.44 33.99h91.78" stroke-width="3"/><path id="line28" d="M352.22 49.16h-83.98" stroke-width="3"/><path id="line30" d="M353.43 81.22h-69.509" stroke-width="3"/><path id="line32" d="M353.43 96.47h-62.92" stroke-width="3"/><path id="line34" d="M353.43 111.29h-53.04" stroke-width="3"/><path id="line36" d="M352.22 126.46h-44.46" stroke-width="3"/><path id="line38" d="M352.22 142.93h-37.44" stroke-width="3"/><path id="line40" d="M353.43 157.31h-30.85" stroke-width="3"/><path id="line42" d="M353.43 171.79h-22.19" stroke-width="3"/><path id="line44" d="M353.43 187.38h-23.49" stroke-width="3"/><path id="line46" d="M353.43 203.85h-23.49" stroke-width="3"/><path id="line48" d="M353.43 219.45h-23.49" stroke-width="3"/><path id="line50" d="M56.78 217.37h25.13" stroke-width="3"/><path id="line52" d="M56.78 229.76h25.13" stroke-width="3"/><path id="line54" d="M56.78 242.5h25.13" stroke-width="3"/><path id="line56" d="M56.78 254.81h25.13" stroke-width="3"/><path id="line58" d="M56.78 267.63h25.13" stroke-width="3"/><path id="line60" d="M56.78 280.37h25.13" stroke-width="3"/><path id="line62" d="M56.78 292.68h25.13" stroke-width="3"/><path id="line64" d="M56.78 305.42h25.13" stroke-width="3"/><path id="line66" d="M56.78 317.81h25.13" stroke-width="3"/><path id="line68" d="M56.78 330.55h25.13" stroke-width="3"/><path id="line70" d="M56.78 342.86h25.13" stroke-width="3"/><path id="line72" d="M56.78 355.6h25.13" stroke-width="3"/><path id="line74" d="M56.78 367.99h25.13" stroke-width="3"/><path id="line76" d="M56.78 380.73h25.13" stroke-width="3"/><path id="line78" d="M56.78 393.039h25.13" stroke-width="3"/><path id="line80" d="M56.78 405.78h25.13" stroke-width="3"/><path id="line82" d="M56.78 418.17h25.13" stroke-width="3"/><path id="line84" d="M56.78 430.909h25.13" stroke-width="3"/><path id="line86" d="M56.78 443.21h25.13" stroke-width="3"/><path id="polyline88" d="M172.39 297.27l-81.22.56v153.999l-50.34.671v-7.99" stroke-width="3" stroke-linecap="butt" stroke-linejoin="miter"/><path id="line90" d="M186.5 297.17l-14.11.1" stroke-width="1" stroke-linecap="butt" stroke-linejoin="miter"/><path id="polyline92" d="M253.85 42.02L322.5 172.5l1.33 72.67 34.11.56" stroke-width="3" stroke-linecap="butt" stroke-linejoin="miter"/></g></g></g></svg>